PathFileType	4	(X/Y/Z)	 s02c0201.trc
DataRate	CameraRate	NumFrames	NumMarkers	Units	OrigDataRate	OrigDataStartFrame	OrigNumFrames
200	200	6	51	mm	200	251	2000
Frame#	Time	racr			lacr			c7			jug			rlel			rdr			llel			ldr			s2			lic			ric			lasi			rasi			rpsi			lpsi			rgt			lgt			rth1			rth2			rth3			rth4			rlfc			rmfc			rsh1			rsh2			rsh3			rsh4			rlmal			rmmal			rcal			rtoe			rmt5			rmt1			lth1			lth2			lth4			lth3			llfc			lmfc			lsh1			lsh2			lsh3			lsh4			llmal			lmmal			lcal			ltoe			lmt5			SBIKE			LBIKE			RBIKE			
		X1	Y1	Z1	X2	Y2	Z2	X3	Y3	Z3	X4	Y4	Z4	X5	Y5	Z5	X6	Y6	Z6	X7	Y7	Z7	X8	Y8	Z8	X9	Y9	Z9	X10	Y10	Z10	X11	Y11	Z11	X12	Y12	Z12	X13	Y13	Z13	X14	Y14	Z14	X15	Y15	Z15	X16	Y16	Z16	X17	Y17	Z17	X18	Y18	Z18	X19	Y19	Z19	X20	Y20	Z20	X21	Y21	Z21	X22	Y22	Z22	X23	Y23	Z23	X24	Y24	Z24	X25	Y25	Z25	X26	Y26	Z26	X27	Y27	Z27	X28	Y28	Z28	X29	Y29	Z29	X30	Y30	Z30	X31	Y31	Z31	X32	Y32	Z32	X33	Y33	Z33	X34	Y34	Z34	X35	Y35	Z35	X36	Y36	Z36	X37	Y37	Z37	X38	Y38	Z38	X39	Y39	Z39	X40	Y40	Z40	X41	Y41	Z41	X42	Y42	Z42	X43	Y43	Z43	X44	Y44	Z44	X45	Y45	Z45	X46	Y46	Z46	X47	Y47	Z47	X48	Y48	Z48	X49	Y49	Z49	X50	Y50	Z50	X51	Y51	Z51	
251	1.2550	491.346133	1290.156510	-122.053335	518.724174	1306.786368	-456.816072	507.787933	1322.037300	-296.081958	458.923381	1192.093240	-300.245860	544.284798	1034.822748	-41.063791	716.471526	897.566366	-103.298326	527.977236	1032.492528	-559.396016	710.641885	896.655948	-504.783930	3.111145	1108.671081	-318.482184	151.397611	1103.291310	-454.918360	129.736719	1117.345262	-176.535479	191.452142	1066.240340	-431.117621	182.526547	1086.782562	-198.851999	24.008423	1153.689106	-276.851078	33.659958	1171.666612	-359.694085	110.813045	1046.286723	-132.274681	87.843599	1009.844985	-490.738086	195.816249	1023.490468	-130.892710	282.953568	1014.273371	-137.423988	354.109844	972.101017	-114.685781	293.587946	1038.815966	-165.191478	476.742436	884.728738	-147.697313	467.638950	868.083988	-259.897612	452.972933	774.970392	-133.023941	423.704346	692.485012	-153.849821	364.649099	630.503241	-146.753171	433.765398	689.497455	-191.967595	290.641934	535.634237	-149.982461	296.774498	553.753462	-231.830828	217.013252	482.786667	-191.219495	502.607209	490.848751	-185.934236	395.105413	469.716708	-126.909232	421.283129	484.462487	-236.554060	187.699682	906.065548	-508.250748	251.660111	846.690396	-505.923243	279.576946	864.191438	-488.910435	275.550931	760.779084	-505.337231	325.357988	672.860829	-479.397235	325.444885	644.083030	-375.952206	284.705263	577.442335	-500.627427	264.310293	494.775788	-484.351772	203.535487	428.142966	-488.046036	281.922326	488.916362	-447.943439	139.925343	341.694668	-472.960412	156.780943	331.375501	-395.879557	63.683492	326.300261	-430.355776	298.269689	161.829078	-441.781043	195.163633	198.754547	-499.434954	-162.486870	860.561225	-310.166181	37.806116	86.592218	-514.554197	33.948879	83.193476	-114.324783	
252	1.2600	492.451374	1288.402150	-121.259749	520.769264	1304.416259	-455.952585	509.335755	1319.807787	-295.037616	459.703051	1189.900164	-299.220593	543.393891	1033.439696	-39.253293	716.395011	897.870334	-102.897150	526.965270	1030.730756	-560.376271	710.196380	896.571646	-505.184094	3.387751	1109.109935	-318.893469	151.980722	1103.181983	-455.050480	129.723067	1117.388781	-176.526698	191.807166	1066.007953	-431.122414	182.658535	1086.886185	-198.844078	24.403919	1154.229859	-277.257262	34.456075	1172.354516	-360.061212	110.731025	1046.457366	-132.567287	88.101968	1010.012191	-490.996880	195.844618	1023.482375	-131.084787	282.993908	1014.102454	-137.851362	353.902012	971.794022	-114.806682	293.612890	1038.601186	-165.438371	476.348017	883.917277	-148.021295	466.931975	867.302387	-260.018926	452.606976	774.125381	-133.245243	423.507199	691.481563	-154.069557	364.875327	629.463487	-146.723461	433.673169	688.480482	-192.075825	290.699554	534.607730	-150.110613	296.775349	552.832593	-232.086256	217.245245	481.427740	-191.327986	502.814077	490.713546	-185.877050	395.420513	469.042763	-126.846196	421.536100	484.077677	-236.583536	187.995750	906.207758	-508.420084	252.013287	846.907707	-506.051492	279.953700	864.438694	-489.016401	276.022185	761.009272	-505.423434	325.837811	673.162021	-479.308915	325.842044	644.568576	-375.806940	285.120207	577.817449	-500.517520	264.528137	495.215468	-484.283439	203.647668	428.767637	-487.908853	282.136755	489.291708	-447.834912	139.841023	342.274220	-472.976021	156.712326	331.949085	-395.861691	63.596278	327.000606	-430.362280	297.805788	161.971858	-441.844008	194.771645	199.178331	-499.439464	-162.430323	860.583489	-310.040260	37.801644	86.575808	-514.570856	33.947683	83.187460	-114.321159	
253	1.2650	493.555780	1286.659735	-120.455479	522.780904	1302.114603	-454.956025	510.642188	1317.230249	-293.942586	460.416393	1187.671364	-298.339108	541.961149	1032.624478	-37.614583	716.565571	898.359224	-102.618257	525.991422	1029.248870	-561.355065	709.729805	896.521508	-505.638313	3.671559	1109.537695	-319.259888	152.591642	1103.044287	-455.154553	129.688480	1117.444833	-176.496853	192.130230	1065.832587	-431.153623	182.802365	1087.008082	-198.826215	24.788125	1154.918134	-277.659134	35.192882	1172.876903	-360.335133	110.660346	1046.660218	-132.803433	88.379294	1010.152404	-491.221329	195.863811	1023.515407	-131.289463	282.931080	1013.963687	-138.157866	353.750901	971.496559	-115.048555	293.636620	1038.443992	-165.702737	475.843897	883.244285	-148.187270	466.373857	866.474080	-260.221296	452.314874	773.406447	-133.477728	423.360047	690.721403	-154.289884	364.574474	628.554461	-147.183645	433.494471	687.786239	-192.348621	290.760482	533.700930	-150.255568	296.819984	551.616681	-232.187906	217.412256	480.232874	-191.288948	503.054369	490.467857	-185.815834	395.684618	468.633662	-126.723977	421.813965	483.694183	-236.576062	188.360801	906.345611	-508.627364	252.440342	847.073588	-506.163909	280.313667	864.677300	-489.087610	276.542665	761.227428	-505.497226	326.384563	673.463093	-479.221003	326.240512	645.048004	-375.603152	285.523470	578.272918	-500.404714	264.763903	495.682921	-484.168562	203.714025	429.343534	-487.820839	282.361941	489.727234	-447.712638	139.707503	342.931900	-473.006224	156.634051	332.566092	-395.869733	63.464371	327.727383	-430.388867	297.325328	162.131644	-441.852335	194.404340	199.559179	-499.387723	-162.374608	860.676908	-309.853303	37.797279	86.572407	-514.568994	33.948676	83.178439	-114.335896	
254	1.2700	494.608367	1284.932306	-119.744810	524.914698	1299.796444	-453.865299	512.215799	1314.994078	-292.959246	461.157910	1185.552065	-297.272861	540.996589	1031.334614	-35.945357	716.578931	898.778390	-102.237512	524.852339	1027.531923	-562.414129	709.256250	896.477524	-506.333776	3.975003	1109.865167	-319.620177	153.207126	1102.876437	-455.281044	129.653837	1117.485510	-176.478907	192.439509	1065.691718	-431.168803	182.944615	1087.081926	-198.811580	25.270385	1155.458896	-278.087656	35.980578	1173.478338	-360.773687	110.558845	1046.829515	-133.061485	88.738653	1010.306537	-491.505236	195.857530	1023.601312	-131.507816	282.836699	1013.773873	-138.319473	353.895602	971.080619	-115.868989	293.636663	1038.328554	-165.925491	475.511797	882.704907	-148.533878	465.800658	865.865224	-260.388463	452.088846	772.832432	-133.631656	423.299576	690.030466	-154.517655	364.611372	627.714965	-147.384631	433.437154	687.120233	-192.600883	290.906383	532.949295	-150.369348	296.975907	550.784264	-232.402866	217.707049	479.262460	-191.354120	503.369713	490.218223	-185.695429	396.023485	468.137209	-126.666812	422.191859	483.277587	-236.717192	188.756318	906.446732	-508.762950	252.918655	847.254894	-506.201514	280.711247	864.909114	-489.145635	277.070618	761.421145	-505.470289	326.880861	673.796463	-479.048446	326.591602	645.491090	-375.417278	285.946350	578.706451	-500.281533	264.959317	496.135039	-484.020948	203.837478	430.002233	-487.758795	282.600670	490.171138	-447.674342	139.605634	343.504050	-473.038614	156.525622	333.015494	-395.850705	63.340317	328.365154	-430.390110	296.871661	162.291390	-441.834003	194.032399	199.982476	-499.331346	-162.375786	860.664426	-309.851158	37.800235	86.568230	-514.565195	33.948042	83.180432	-114.324958	
255	1.2750	495.721802	1283.205314	-119.022835	527.140404	1297.369804	-452.658195	513.498439	1312.398805	-291.756040	461.825747	1183.433676	-296.332332	540.127482	1030.080630	-34.316455	716.447761	899.050502	-101.813728	523.634888	1025.806997	-563.436326	708.899327	896.436986	-507.096884	4.322969	1110.216562	-320.021166	153.859846	1102.630227	-455.388427	129.629207	1117.569036	-176.469114	192.788216	1065.433091	-431.105945	183.125769	1087.211227	-198.776159	25.748084	1156.017103	-278.541831	36.818017	1173.986972	-361.172393	110.505362	1047.074820	-133.265381	89.070436	1010.428409	-491.764995	195.853596	1023.770410	-131.732796	282.715209	1013.659502	-138.494118	353.791054	970.916027	-116.145584	293.677810	1038.266079	-166.168420	475.644817	881.971437	-149.528995	465.365937	865.407769	-260.543103	451.956080	772.208331	-133.855882	423.361722	689.412998	-154.639806	364.751990	626.983026	-147.564468	433.474787	686.458552	-192.716539	291.211406	531.973260	-150.687850	297.153332	549.803643	-232.538838	218.016349	478.197394	-191.413042	503.731409	489.931207	-185.587906	396.350253	467.645438	-126.643775	422.555734	482.862475	-236.633679	189.146571	906.563256	-508.815623	253.364596	847.448524	-506.266219	281.153497	865.118988	-489.246381	277.641587	761.669776	-505.478749	327.444879	674.163192	-478.802465	326.904160	645.943655	-375.239390	286.397881	579.151446	-500.090830	265.219644	496.589703	-483.837918	203.932660	430.530568	-487.638388	282.822152	490.627037	-447.552327	139.476844	344.176923	-473.085558	156.396773	333.583782	-395.864660	63.174309	329.071993	-430.389669	296.473992	162.429145	-441.830463	193.687201	200.358251	-499.349875	-162.344382	860.630957	-309.879339	37.805888	86.568572	-514.569425	33.956465	83.195035	-114.328221	
256	1.2800	496.867747	1281.521876	-118.269531	529.338748	1295.014947	-451.344270	515.073477	1310.176753	-290.827682	462.456644	1181.340244	-295.392835	538.813802	1028.666225	-32.662016	716.295435	899.194593	-101.407018	522.399235	1024.180237	-564.401847	708.519265	896.397341	-507.982281	4.680475	1110.634242	-320.477458	154.451477	1102.427107	-455.526447	129.661668	1117.649236	-176.467493	193.145139	1065.226694	-431.080319	183.330856	1087.342662	-198.706104	26.223258	1156.617438	-278.999898	37.701764	1174.426514	-361.461972	110.484747	1047.345203	-133.466319	89.388937	1010.497560	-492.002862	195.857856	1023.954471	-131.907315	282.604865	1013.703624	-138.665414	353.662339	970.777501	-116.326738	293.699504	1038.250452	-166.370062	475.513914	881.500406	-149.947147	465.042891	864.990431	-260.659766	451.839873	771.748264	-133.975482	423.419075	688.853751	-154.762390	364.951635	626.375230	-147.704717	433.537296	685.914021	-192.827263	291.371889	531.522942	-150.597368	297.349432	549.105037	-232.638797	218.386070	477.436669	-191.543417	504.135271	489.543618	-185.554922	396.724010	467.143397	-126.575070	422.998648	482.427551	-236.586372	189.592331	906.733418	-508.950447	253.858811	847.721904	-506.356704	281.587324	865.363616	-489.296804	278.202197	761.912119	-505.511488	327.946045	674.584934	-478.535430	327.201652	646.412245	-375.039237	286.839259	579.560215	-499.902033	265.505515	497.058292	-483.705747	204.074416	431.220297	-487.522646	283.039499	491.026666	-447.441620	139.356232	344.778928	-473.168716	156.297863	334.276265	-395.878587	63.079568	329.813952	-430.485330	295.974981	162.608137	-441.786317	193.326325	200.729299	-499.347347	-162.372035	860.601821	-309.972325	37.801302	86.575051	-514.556607	33.940533	83.187714	-114.313077	
